# xmcd
#
# Track frame offsets:
#	150
#	32870
#	58672
#	171530
#	225950
#
# Disc length: 3346 seconds
#
# Revision: 0
# Processed by: cddbd v1.5.2PL0 Copyright (c) Steve Scherf et al.
# Submitted via: audiograbber 1.83.01
#
DISCID=3b0d1005
DTITLE=J.R.R. Tolkien - LOTR-BBC Radio Play [CD02)
DYEAR=1999
DGENRE=Speech
TTITLE0=Episode 02 - The Black Riders - 02-01 Opening titles
TTITLE1=Episode 02 - The Black Riders - 02-02 Shadowfax
TTITLE2=Episode 02 - The Black Riders - 0203 The Road Goes Ever On and On
TTITLE3=Episode 02 - The Black Riders - 02-04 Frodo Entertains The Customers At
TTITLE3=The Prancing Pony
TTITLE4=Episode 02 - The Black Riders - 02-05 Gandalf's Letter
EXTD=
EXTT0=
EXTT1=
EXTT2=
EXTT3=
EXTT4=
PLAYORDER=
